<svg width="1104" height="300" xmlns="http://www.w3.org/2000/svg" xml:space="preserve" style="enable-background:new 0 0 1104 300;" version="1.1">
 <style type="text/css">.st0{fill:#4952FD;}
	.st1{fill:#FFFFFF;}</style>

 <g>
  <title>background</title>
  <rect fill="none" id="canvas_background" height="811" width="1662" y="-1" x="-1"/>
 </g>
 <g>
  <title>Layer 1</title>
  <path id="svg_1" d="m155.17,1.08c-85.92,-2.79 -156.41,67.7 -153.62,153.62c2.53,77.95 65.8,141.22 143.75,143.75c85.92,2.79 156.41,-67.7 153.62,-153.62c-2.54,-77.95 -65.8,-141.22 -143.75,-143.75zm76.68,86.27l-34.05,26.45c-9.86,7.66 -24.22,0.63 -24.22,-11.86l0,-52.28c23.55,5.49 44.01,19.09 58.27,37.69zm-184.42,62.41c0,-48.66 33.99,-89.5 79.46,-100.1l0,200.2c-45.47,-10.6 -79.46,-51.44 -79.46,-100.1zm126.15,100.11l0,-34.99c0,-14.6 6.74,-28.38 18.27,-37.33l59.5,-46.23c1.09,5.99 1.69,12.14 1.69,18.44c0,48.66 -33.99,89.5 -79.46,100.11z" class="st0"/>
  <g id="svg_2">
   <path id="svg_3" d="m421.02,49.27c-25.77,0 -43.04,9.28 -50.25,42.78l-18.04,84.01c-7.47,34.53 7.47,50 38.66,50c29.64,0 45.61,-9.54 53.09,-44.84l17.01,-79.37c7.47,-35.05 -6.19,-52.58 -40.47,-52.58zm2.06,40.98l-19.84,94.32c-1.55,6.96 -3.09,10.57 -7.99,10.57c-4.38,0 -5.41,-4.12 -4.12,-10.57l19.84,-94.06c1.55,-7.73 3.87,-10.31 7.73,-10.31c4.64,0 5.93,2.32 4.38,10.05z" class="st1"/>
   <path id="svg_4" d="m470.24,132c5.15,-24.74 8.25,-40.2 9.54,-47.42l38.66,0c-0.52,4.38 -1.55,12.11 -2.83,18.04c6.96,-14.69 18.55,-19.84 30.92,-20.1l-10.05,47.42c-24.48,-1.55 -28.09,10.82 -31.18,25.51l-14.43,68.03l-39.94,0l19.31,-91.48z" class="st1"/>
   <path id="svg_5" d="m610.94,51.85l-44.84,0l-36.34,171.63l40.2,0l13.14,-63.14l13.14,0c32.73,0 42.78,-13.66 48.96,-42.78l3.61,-17.01c5.69,-27.05 -1.79,-48.7 -37.87,-48.7zm-1.28,40.97l-4.9,23.97c-1.8,8.76 -4.38,11.85 -10.82,11.85l-3.87,0l10.05,-47.68l3.61,0c5.67,0.01 7.73,2.85 5.93,11.86z" class="st1"/>
   <polygon id="svg_6" points="637.74,223.48 675.63,44.12 715.57,44.12 677.69,223.48  " class="st1"/>
   <path id="svg_7" d="m763.5,82.52c-27.83,0 -41.75,9.28 -48.19,39.69l-1.03,4.9l37.11,0l1.55,-6.7c1.8,-7.99 3.87,-10.05 7.73,-10.05c4.12,0 5.41,2.32 3.61,11.08l-2.83,13.66c-1.29,0 -4.12,0.26 -6.19,0.52c-35.05,3.35 -49.48,14.17 -55.92,44.07c-6.44,30.41 1.8,46.13 20.62,46.13c9.54,0 17.78,-2.83 25.77,-12.37c-0.52,3.61 -1.03,6.96 -1.29,10.05l38.91,0c0.77,-5.15 5.41,-29.89 7.22,-37.63l12.63,-59.27c7.46,-35.06 -11.09,-44.08 -39.7,-44.08zm-12.37,102.05c-1.03,4.38 -2.83,8.5 -7.73,8.5c-4.12,0 -5.93,-3.61 -4.12,-13.14c2.58,-13.14 5.93,-16.24 13.4,-17.78c1.03,-0.26 2.32,-0.52 3.09,-0.52l-4.64,22.94z" class="st1"/>
   <path id="svg_8" d="m859.37,84.58c-2.83,27.83 -8.5,77.83 -11.34,96.9l2.06,0c5.15,-20.1 15.21,-61.08 25,-96.9l41.75,0l-51.54,138.64c-10.57,28.09 -19.59,43.81 -55.92,43.81c-7.99,0 -13.4,-0.52 -18.3,-1.29l6.7,-33.24c2.83,0.26 4.64,0.52 6.96,0.52c6.7,0 10.82,-1.8 11.85,-5.15l0.77,-143.28l42.01,0l0,-0.01z" class="st1"/>
   <path id="svg_9" d="m968.12,82.52c-32.99,0 -46.13,16.75 -52.57,46.64l-9.28,44.07c-6.7,31.96 0.51,52.57 37.88,52.57c34.27,0 46.13,-16.49 51.54,-43.55l1.03,-6.44l-38.66,0l-2.06,9.54c-1.8,7.99 -3.61,10.57 -8.25,10.57c-3.09,0 -5.41,-2.32 -3.87,-9.79l4.38,-22.68l51.28,0l6.44,-30.41c6.46,-30.94 -0.49,-50.52 -37.86,-50.52zm0,44.32l-2.32,11.08l-11.6,0l2.06,-10.31c2.58,-13.14 3.87,-16.24 9.02,-16.24c5.67,0.01 5.16,4.91 2.84,15.47z" class="st1"/>
   <path id="svg_10" d="m1020.69,132c5.15,-24.74 8.25,-40.2 9.54,-47.42l38.66,0c-0.52,4.38 -1.55,12.11 -2.83,18.04c6.96,-14.69 18.56,-19.84 30.92,-20.1l-10.05,47.42c-24.48,-1.55 -28.09,10.82 -31.18,25.51l-14.43,68.03l-39.94,0l19.31,-91.48z" class="st1"/>
  </g>
 </g>
</svg>